<?xml version="1.0" encoding="UTF-8" standalone="no"?>
<svg
   xmlns:dc="http://purl.org/dc/elements/1.1/"
   xmlns:cc="http://creativecommons.org/ns#"
   xmlns:rdf="http://www.w3.org/1999/02/22-rdf-syntax-ns#"
   xmlns:svg="http://www.w3.org/2000/svg"
   xmlns="http://www.w3.org/2000/svg"
   xmlns:sodipodi="http://sodipodi.sourceforge.net/DTD/sodipodi-0.dtd"
   xmlns:inkscape="http://www.inkscape.org/namespaces/inkscape"
   viewBox="0 0 185.10953 212.35629"
   height="212.35629"
   width="185.10953"
   version="1.1"
   id="svg2"
   sodipodi:docname="rus.svg"
   inkscape:version="0.92.4 (5da689c313, 2019-01-14)">
  <sodipodi:namedview
     pagecolor="#ffffff"
     bordercolor="#666666"
     borderopacity="1"
     objecttolerance="10"
     gridtolerance="10"
     guidetolerance="10"
     inkscape:pageopacity="0"
     inkscape:pageshadow="2"
     inkscape:window-width="716"
     inkscape:window-height="480"
     id="namedview10"
     showgrid="false"
     inkscape:zoom="6.2866873"
     inkscape:cx="184.3005"
     inkscape:cy="62.643138"
     inkscape:window-x="964"
     inkscape:window-y="188"
     inkscape:window-maximized="0"
     inkscape:current-layer="svg2" />
  <metadata
     id="metadata8">
    <rdf:RDF>
      <cc:Work
         rdf:about="">
        <dc:format>image/svg+xml</dc:format>
        <dc:type
           rdf:resource="http://purl.org/dc/dcmitype/StillImage" />
        <dc:title />
      </cc:Work>
    </rdf:RDF>
  </metadata>
  <defs
     id="defs6" />
  <g
     transform="translate(-26.25,-12.54268)"
     id="g4138">
    <path
       id="path4144"
       d="m 118.75977,12.54268 c 0,0 22.11523,11.781065 46.86523,26.12798 l 45.79533,26.244366 0.36726,8.87202 -0.42807,8.712954 -46.05316,0.02119 H 119.0016 Z"
       style="fill:#949494"
       inkscape:connector-curvature="0"
       sodipodi:nodetypes="cscccccc" />
    <path
       id="path4142"
       d="M 71.5625,198.51672 26.25,172.2359 l 0,-8.61795 0,-8.61795 92.5,0 92.5,0 0,8.61879 0,8.61878 -45.75101,26.38122 c -25.16305,14.50966 -46.39743,26.33566 -47.1875,26.27998 -0.79007,-0.0557 -21.827115,-11.9276 -46.74899,-26.38205 z"
       style="fill:#b30c12" />
    <path
       id="path4140"
       d="M 26.25,118.75 V 82.5 h 92.5 92.60952 L 211.25,118.75 V 155 h -92.5 -92.5 z"
       style="fill:#003062"
       inkscape:connector-curvature="0"
       sodipodi:nodetypes="ccccccccc" />
    <path
       id="path4146"
       d="m 26.66844,82.269598 92.33316,-69.690149 0,69.941738 z"
       style="fill:#ffffff;fill-rule:evenodd;stroke:none;stroke-width:1px;stroke-linecap:butt;stroke-linejoin:miter;stroke-opacity:1" />
  </g>
  <path
     style="opacity:1;fill:#ffffff;stroke:none"
     d="M 0.41844,69.726918 92.7516,69.978507"
     id="path817"
     inkscape:connector-curvature="0" />
  <path
     style="opacity:1;fill:#ffffff;stroke:none"
     d="M 92.50977,0 92.7516,69.978507"
     id="path819"
     inkscape:connector-curvature="0" />
  <path
     style="opacity:1;fill:#ffffff;stroke:none;stroke-opacity:1"
     d="M 92.50977,0 92.7516,69.978507"
     id="path827"
     inkscape:connector-curvature="0" />
  <path
     style="opacity:1;fill:#ffffff;stroke:none;stroke-opacity:1"
     d="M 92.50977,0 0,50.389629 0.41844,69.726918"
     id="path831"
     inkscape:connector-curvature="0" />
</svg>
